<svg xmlns="http://www.w3.org/2000/svg" viewBox="0 0 206 239.92"><defs><style>.cls-1{fill:#147480;}.cls-2{fill:#449199;}.cls-3{fill:#73acb3;}.cls-4{fill:#a0c8cc;}.cls-5{fill:#c5dde0;}.cls-6{fill:#dbeaec;}</style></defs><g id="Calque_2" data-name="Calque 2"><polygon class="cls-1" points="30.86 196.91 103.86 239.91 176.28 196.91 103.57 154.35 30.86 196.91"/><path class="cls-1" d="M157,245" transform="translate(-43 -48.41)"/><path class="cls-1" d="M161,264" transform="translate(-43 -48.41)"/></g><g id="Calque_3" data-name="Calque 3"><polygon class="cls-2" points="30.86 196.91 11 184.59 103.57 130.37 198 184.59 176.28 196.91 103.57 154.35 30.86 196.91"/></g><g id="Calque_4" data-name="Calque 4"><polygon class="cls-3" points="11 184.59 0 178.59 0 169.47 103.57 109.7 206 169.59 206 179.01 198 184.59 103.57 130.37 11 184.59"/></g><g id="Calque_5" data-name="Calque 5"><polygon class="cls-4" points="0 169.47 0 150.08 103.57 89.04 206 148.81 206 169.59 103.57 109.7 0 169.47"/></g><g id="Calque_7" data-name="Calque 7"><polygon class="cls-5" points="0 150.08 0 129.31 103.57 68.37 206 127.82 206 148.81 103.57 89.04 0 150.08"/></g><g id="Calque_8" data-name="Calque 8"><polygon class="cls-6" points="0 129.31 0 60.72 103 0 206 60.34 206 127.82 103.57 68.37 0 129.31"/></g></svg>